<?xml version="1.0" encoding="utf-8"?>
<!-- Generator: Adobe Illustrator 23.0.3, SVG Export Plug-In . SVG Version: 6.00 Build 0)  -->
<svg version="1.1" id="Capa_1" xmlns="http://www.w3.org/2000/svg" xmlns:xlink="http://www.w3.org/1999/xlink" x="0px" y="0px"
	 viewBox="0 0 46 46" style="enable-background:new 0 0 46 46;" xml:space="preserve">
<style type="text/css">
	.st0{opacity:0.7;fill:#0A0201;}
	.st1{opacity:0.65;fill:#090507;}
	.st2{opacity:0.7;fill:#070013;}
	.st3{opacity:0.7;fill:#090403;}
	.st4{opacity:0.7;fill:#150023;}
	.st5{opacity:0.7;fill:#0A0200;}
	.st6{fill:#1F92D1;}
	.st7{fill:#FFFFFF;}
	.st8{opacity:0.3;fill:none;stroke:#000000;stroke-width:0.5;stroke-miterlimit:10;}
	.st9{opacity:0.7;}
	.st10{fill:#010002;}
	.st11{fill:none;stroke:#000000;stroke-width:2;stroke-miterlimit:10;}
	.st12{fill:none;stroke:#9F238A;stroke-width:3;stroke-miterlimit:10;}
	.st13{fill:none;stroke:#EB854B;stroke-width:3;stroke-miterlimit:10;}
	.st14{fill:none;stroke:#6CAA43;stroke-width:3;stroke-miterlimit:10;}
	.st15{opacity:0.5;}
	.st16{fill:#6CAA43;}
	.st17{fill:#EB854B;}
	.st18{fill:#9F238A;}
	.st19{fill:#D38450;}
	.st20{fill:#F0CA39;}
	.st21{fill:#80A74C;}
	.st22{fill:#5690CD;}
	.st23{fill:#872986;}
	.st24{fill:none;}
	.st25{opacity:0;fill:#FFFFFF;}
</style>
<rect class="st25" width="46" height="46"/>
<g>
	<path class="st17" d="M25.41,10.88c-5.36,0-9.72,4.52-9.72,10.08c0,2.08,0.61,4.08,1.76,5.78l0.17,0.26l-6.46,6.43
		c-0.19,0.19-0.29,0.44-0.29,0.72c0,0.26,0.09,0.5,0.27,0.69c0.17,0.19,0.41,0.29,0.66,0.3c0.25,0,0.48-0.09,0.66-0.27l6.44-6.41
		l0.26,0.23c1.75,1.52,3.96,2.36,6.24,2.36c5.36,0,9.72-4.52,9.72-10.08S30.77,10.88,25.41,10.88z M25.41,29.06
		c-4.32,0-7.84-3.63-7.84-8.1s3.52-8.1,7.84-8.1s7.84,3.63,7.84,8.1S29.73,29.06,25.41,29.06z"/>
	<path class="st17" d="M25.18,16.67c-0.62,0.04-1.09,0.59-1.05,1.24c0.04,0.65,0.58,1.15,1.19,1.11c0.04,0,0.08,0,0.11,0
		c1.02,0,1.88,0.82,1.95,1.88c0.04,0.65,0.58,1.15,1.19,1.11c0.62-0.04,1.09-0.6,1.05-1.24C29.48,18.37,27.48,16.53,25.18,16.67z"/>
</g>
</svg>
