<?xml version="1.0" encoding="utf-8"?>
<!-- Generator: Adobe Illustrator 23.0.3, SVG Export Plug-In . SVG Version: 6.00 Build 0)  -->
<svg version="1.1" id="Capa_1" xmlns="http://www.w3.org/2000/svg" xmlns:xlink="http://www.w3.org/1999/xlink" x="0px" y="0px"
	 viewBox="0 0 46 46" style="enable-background:new 0 0 46 46;" xml:space="preserve">
<style type="text/css">
	.st0{opacity:0.7;fill:#0A0201;}
	.st1{opacity:0.65;fill:#090507;}
	.st2{opacity:0.7;fill:#070013;}
	.st3{opacity:0.7;fill:#090403;}
	.st4{opacity:0.7;fill:#150023;}
	.st5{opacity:0.7;fill:#0A0200;}
	.st6{fill:#1F92D1;}
	.st7{fill:#FFFFFF;}
	.st8{opacity:0.3;fill:none;stroke:#000000;stroke-width:0.5;stroke-miterlimit:10;}
	.st9{opacity:0.7;}
	.st10{fill:#010002;}
	.st11{fill:none;stroke:#000000;stroke-width:2;stroke-miterlimit:10;}
	.st12{fill:none;stroke:#9F238A;stroke-width:3;stroke-miterlimit:10;}
	.st13{fill:none;stroke:#EB854B;stroke-width:3;stroke-miterlimit:10;}
	.st14{fill:none;stroke:#6CAA43;stroke-width:3;stroke-miterlimit:10;}
	.st15{opacity:0.5;}
	.st16{fill:#6CAA43;}
	.st17{fill:#EB854B;}
	.st18{fill:#9F238A;}
	.st19{fill:#D38450;}
	.st20{fill:#F0CA39;}
	.st21{fill:#80A74C;}
	.st22{fill:#5690CD;}
	.st23{fill:#872986;}
	.st24{fill:none;}
	.st25{opacity:0;fill:#FFFFFF;}
</style>
<rect class="st25" width="46" height="46"/>
<g>
	<path class="st16" d="M32.57,12.7h-1.42v-1.95H29.7v1.95H16.3v-1.95h-1.45v1.95h-1.42c-1.48,0-2.68,1.2-2.68,2.68v17.19
		c0,1.48,1.2,2.68,2.68,2.68h19.14c1.48,0,2.68-1.2,2.68-2.68V15.38C35.25,13.91,34.05,12.7,32.57,12.7z M33.8,32.57
		c0,0.68-0.55,1.23-1.23,1.23H13.43c-0.68,0-1.23-0.55-1.23-1.23V19.43H33.8V32.57z M33.8,17.98H12.2v-2.59
		c0-0.68,0.55-1.23,1.23-1.23h1.42v1.95h1.45v-1.95H29.7v1.95h1.45v-1.95h1.42c0.68,0,1.23,0.55,1.23,1.23V17.98z"/>
	<rect x="14.46" y="21.98" class="st16" width="1.45" height="1.45"/>
	<rect x="18.37" y="21.98" class="st16" width="1.45" height="1.45"/>
	<rect x="22.27" y="21.98" class="st16" width="1.45" height="1.45"/>
	<rect x="26.18" y="21.98" class="st16" width="1.45" height="1.45"/>
	<rect x="30.09" y="21.98" class="st16" width="1.45" height="1.45"/>
	<rect x="14.46" y="25.89" class="st16" width="1.45" height="1.45"/>
	<rect x="18.37" y="25.89" class="st16" width="1.45" height="1.45"/>
	<rect x="22.27" y="25.89" class="st16" width="1.45" height="1.45"/>
	<rect x="26.18" y="25.89" class="st16" width="1.45" height="1.45"/>
	<rect x="14.46" y="29.79" class="st16" width="1.45" height="1.45"/>
	<rect x="18.37" y="29.79" class="st16" width="1.45" height="1.45"/>
	<rect x="22.27" y="29.79" class="st16" width="1.45" height="1.45"/>
	<rect x="26.18" y="29.79" class="st16" width="1.45" height="1.45"/>
	<rect x="30.09" y="25.89" class="st16" width="1.45" height="1.45"/>
</g>
</svg>
