<?xml version="1.0" encoding="utf-8"?>
<!-- Generator: Adobe Illustrator 23.0.3, SVG Export Plug-In . SVG Version: 6.00 Build 0)  -->
<svg version="1.1" id="Capa_1" xmlns="http://www.w3.org/2000/svg" xmlns:xlink="http://www.w3.org/1999/xlink" x="0px" y="0px"
	 viewBox="0 0 46 46" style="enable-background:new 0 0 46 46;" xml:space="preserve">
<style type="text/css">
	.st0{opacity:0.7;fill:#0A0201;}
	.st1{opacity:0.65;fill:#090507;}
	.st2{opacity:0.7;fill:#070013;}
	.st3{opacity:0.7;fill:#090403;}
	.st4{opacity:0.7;fill:#150023;}
	.st5{opacity:0.7;fill:#0A0200;}
	.st6{fill:#1F92D1;}
	.st7{fill:#FFFFFF;}
	.st8{opacity:0.3;fill:none;stroke:#000000;stroke-width:0.5;stroke-miterlimit:10;}
	.st9{opacity:0.7;}
	.st10{fill:#010002;}
	.st11{fill:none;stroke:#000000;stroke-width:2;stroke-miterlimit:10;}
	.st12{fill:none;stroke:#9F238A;stroke-width:3;stroke-miterlimit:10;}
	.st13{fill:none;stroke:#EB854B;stroke-width:3;stroke-miterlimit:10;}
	.st14{fill:none;stroke:#6CAA43;stroke-width:3;stroke-miterlimit:10;}
	.st15{opacity:0.5;}
	.st16{fill:#6CAA43;}
	.st17{fill:#EB854B;}
	.st18{fill:#9F238A;}
	.st19{fill:#D38450;}
	.st20{fill:#F0CA39;}
	.st21{fill:#80A74C;}
	.st22{fill:#5690CD;}
	.st23{fill:#872986;}
	.st24{fill:none;}
	.st25{opacity:0;fill:#FFFFFF;}
</style>
<rect class="st25" width="46" height="46"/>
<g>
	<path class="st18" d="M12.11,30.03l3.86,3.86c1.83,1.83,4.72,2.16,6.76,0.68c1.31-0.95,2.08-2.42,2.13-4.02
		c0.02-0.65,0.42-1.29,1.05-1.65c0.89-0.52,1.83-1.25,2.33-1.82c1.47-1.68,1.37-4.28-0.21-5.99l2.81-2.81l0.52,0.52
		c0.29,0.29,0.75,0.29,1.04,0c0.29-0.29,0.29-0.75,0-1.04l-0.52-0.52l1.04-1.04l0.52,0.52c0.29,0.29,0.75,0.29,1.04,0
		c0.29-0.29,0.29-0.75,0-1.04l-0.21-0.21c1.36-0.64,1.69-2.46,0.61-3.54l-0.79-0.79c-1.08-1.08-2.89-0.75-3.54,0.61l-0.21-0.21
		c-0.29-0.29-0.75-0.29-1.04,0c-0.29,0.29-0.29,0.75,0,1.04l0.52,0.52l-1.04,1.04l-0.52-0.52c-0.29-0.29-0.75-0.29-1.04,0
		c-0.29,0.29-0.29,0.75,0,1.04l0.52,0.52l-2.81,2.81c-1.71-1.58-4.31-1.68-5.99-0.21c-0.57,0.5-1.3,1.44-1.82,2.33
		c-0.37,0.63-1,1.03-1.65,1.05c-1.6,0.04-3.07,0.82-4.02,2.13C9.93,25.33,10.31,28.22,12.11,30.03z M22.76,24.28
		c-0.11-0.22-0.25-0.43-0.43-0.61c-0.18-0.18-0.39-0.32-0.61-0.43c0.45-0.45,6.74-6.74,7.04-7.04l1.04,1.04
		C29.54,17.5,23.17,23.87,22.76,24.28z M20.26,25.74c-0.29-0.29-0.29-0.75,0-1.04c0.29-0.29,0.75-0.29,1.04,0
		c0.29,0.29,0.29,0.75,0,1.04C21.01,26.03,20.54,26.03,20.26,25.74z M33.03,12.18l0.79,0.79c0.39,0.39,0.23,1.04-0.29,1.21
		l-0.86,0.29c-0.1,0.03-0.2,0.1-0.29,0.18l0,0l-1.55,1.55l-1.04-1.04l1.55-1.55c0,0,0,0,0,0c0.08-0.08,0.14-0.19,0.18-0.29
		l0.29-0.86C31.99,11.95,32.64,11.8,33.03,12.18z M12.61,24.13c0.68-0.94,1.73-1.49,2.87-1.52c1.16-0.03,2.26-0.71,2.88-1.78
		c0.49-0.84,1.13-1.62,1.52-1.96c1.09-0.95,2.84-0.87,3.99,0.14l-4.66,4.66c-0.86,0.86-0.86,2.25,0,3.11c0.86,0.86,2.25,0.86,3.11,0
		l4.66-4.66c1.02,1.15,1.09,2.9,0.14,3.99c-0.34,0.39-1.12,1.03-1.96,1.52c-1.07,0.62-1.75,1.72-1.78,2.88
		c-0.03,1.14-0.58,2.19-1.52,2.87c-1.43,1.04-3.52,0.81-4.86-0.53l-3.86-3.86C11.8,27.65,11.58,25.56,12.61,24.13z"/>
	<path class="st18" d="M19.22,30.92c0.29,0.29,0.75,0.29,1.04,0c0.29-0.29,0.29-0.75,0-1.04l-4.14-4.14c-0.29-0.29-0.75-0.29-1.04,0
		c-0.29,0.29-0.29,0.75,0,1.04L19.22,30.92z"/>
</g>
</svg>
