<?xml version="1.0" encoding="utf-8"?>
<!-- Generator: Adobe Illustrator 23.0.3, SVG Export Plug-In . SVG Version: 6.00 Build 0)  -->
<svg version="1.1" id="Capa_1" xmlns="http://www.w3.org/2000/svg" xmlns:xlink="http://www.w3.org/1999/xlink" x="0px" y="0px"
	 viewBox="0 0 46 46" style="enable-background:new 0 0 46 46;" xml:space="preserve">
<style type="text/css">
	.st0{opacity:0.7;fill:#0A0201;}
	.st1{opacity:0.65;fill:#090507;}
	.st2{opacity:0.7;fill:#070013;}
	.st3{opacity:0.7;fill:#090403;}
	.st4{opacity:0.7;fill:#150023;}
	.st5{opacity:0.7;fill:#0A0200;}
	.st6{fill:#1F92D1;}
	.st7{fill:#FFFFFF;}
	.st8{opacity:0.3;fill:none;stroke:#000000;stroke-width:0.5;stroke-miterlimit:10;}
	.st9{opacity:0.7;}
	.st10{fill:#010002;}
	.st11{fill:none;stroke:#000000;stroke-width:2;stroke-miterlimit:10;}
	.st12{fill:none;stroke:#9F238A;stroke-width:3;stroke-miterlimit:10;}
	.st13{fill:none;stroke:#EB854B;stroke-width:3;stroke-miterlimit:10;}
	.st14{fill:none;stroke:#6CAA43;stroke-width:3;stroke-miterlimit:10;}
	.st15{opacity:0.5;}
	.st16{fill:#6CAA43;}
	.st17{fill:#EB854B;}
	.st18{fill:#9F238A;}
	.st19{fill:#D38450;}
	.st20{fill:#F0CA39;}
	.st21{fill:#80A74C;}
	.st22{fill:#5690CD;}
	.st23{fill:#872986;}
	.st24{fill:none;}
	.st25{opacity:0;fill:#FFFFFF;}
</style>
<rect class="st25" width="46" height="46"/>
<g>
	<path class="st17" d="M31.49,14.51C29.22,12.25,26.21,11,23,11s-6.22,1.25-8.49,3.51C12.25,16.78,11,19.79,11,23
		s1.25,6.22,3.51,8.49C16.78,33.75,19.79,35,23,35c1.6,0,3.16-0.31,4.59-0.91s2.76-1.47,3.89-2.61C33.75,29.22,35,26.21,35,23
		S33.75,16.78,31.49,14.51z M27.12,26.12c1.81-1.59,4.06-2.5,6.46-2.61c-0.11,2.32-0.98,4.61-2.6,6.46L27.12,26.12z M33.55,22.11
		L33.55,22.11c-1.33,0.06-2.63,0.34-3.87,0.83c-1.31,0.52-2.5,1.25-3.55,2.19L23.99,23l6.98-6.98
		C32.5,17.77,33.36,19.92,33.55,22.11z M22.93,29.67c-0.49,1.24-0.77,2.54-0.83,3.87l0,0c-2.19-0.18-4.33-1.04-6.09-2.58L23,23.99
		l2.13,2.13C24.19,27.17,23.45,28.36,22.93,29.67z M18.88,19.88c-1.81,1.59-4.06,2.49-6.46,2.61c0.11-2.32,0.98-4.61,2.6-6.46
		L18.88,19.88z M16.02,15.03c1.85-1.62,4.14-2.49,6.46-2.6c-0.11,2.4-1.02,4.65-2.61,6.46L16.02,15.03z M23.07,16.33
		c0.49-1.24,0.77-2.54,0.83-3.88h0c2.19,0.18,4.33,1.04,6.08,2.58L23,22.01l-2.13-2.13C21.81,18.83,22.55,17.64,23.07,16.33z
		 M12.45,23.89L12.45,23.89c1.33-0.06,2.63-0.34,3.87-0.83c1.31-0.52,2.5-1.25,3.55-2.19L22.01,23l-6.98,6.98
		C13.5,28.23,12.64,26.08,12.45,23.89z M23.51,33.58c0.11-2.4,1.02-4.65,2.61-6.46l3.85,3.85C28.12,32.6,25.83,33.46,23.51,33.58z"
		/>
</g>
</svg>
