<?xml version="1.0" encoding="utf-8"?>
<!-- Generator: Adobe Illustrator 23.0.3, SVG Export Plug-In . SVG Version: 6.00 Build 0)  -->
<svg version="1.1" id="Capa_1" xmlns="http://www.w3.org/2000/svg" xmlns:xlink="http://www.w3.org/1999/xlink" x="0px" y="0px"
	 viewBox="0 0 46 46" style="enable-background:new 0 0 46 46;" xml:space="preserve">
<style type="text/css">
	.st0{opacity:0.7;fill:#0A0201;}
	.st1{opacity:0.65;fill:#090507;}
	.st2{opacity:0.7;fill:#070013;}
	.st3{opacity:0.7;fill:#090403;}
	.st4{opacity:0.7;fill:#150023;}
	.st5{opacity:0.7;fill:#0A0200;}
	.st6{fill:#1F92D1;}
	.st7{fill:#FFFFFF;}
	.st8{opacity:0.3;fill:none;stroke:#000000;stroke-width:0.5;stroke-miterlimit:10;}
	.st9{opacity:0.7;}
	.st10{fill:#010002;}
	.st11{fill:none;stroke:#000000;stroke-width:2;stroke-miterlimit:10;}
	.st12{fill:none;stroke:#9F238A;stroke-width:3;stroke-miterlimit:10;}
	.st13{fill:none;stroke:#EB854B;stroke-width:3;stroke-miterlimit:10;}
	.st14{fill:none;stroke:#6CAA43;stroke-width:3;stroke-miterlimit:10;}
	.st15{opacity:0.5;}
	.st16{fill:#6CAA43;}
	.st17{fill:#EB854B;}
	.st18{fill:#9F238A;}
	.st19{fill:#D38450;}
	.st20{fill:#F0CA39;}
	.st21{fill:#80A74C;}
	.st22{fill:#5690CD;}
	.st23{fill:#872986;}
	.st24{fill:none;}
	.st25{opacity:0;fill:#FFFFFF;}
</style>
<rect class="st25" width="46" height="46"/>
<g>
	<g>
		<path class="st16" d="M14.75,28.25c0,0.41,0.34,0.75,0.75,0.75c0.41,0,0.75-0.34,0.75-0.75c0-0.41-0.34-0.75-0.75-0.75
			C15.08,27.5,14.75,27.84,14.75,28.25z"/>
		<path class="st16" d="M30.5,29.01c0.41,0,0.75-0.34,0.75-0.75c0-0.41-0.34-0.75-0.75-0.75s-0.75,0.34-0.75,0.75
			C29.75,28.67,30.09,29.01,30.5,29.01z"/>
		<path class="st16" d="M14.75,20c0.41,0,0.75-0.34,0.75-0.75c0-0.41-0.34-0.75-0.75-0.75S14,18.84,14,19.25
			C14,19.67,14.33,20,14.75,20z"/>
		<path class="st16" d="M15.5,17c0.41,0,0.75-0.34,0.75-0.75c0-0.41-0.34-0.75-0.75-0.75c-0.41,0-0.75,0.34-0.75,0.75
			C14.75,16.67,15.08,17,15.5,17z"/>
		<path class="st16" d="M30.5,19.25c0,0.41,0.34,0.75,0.75,0.75S32,19.67,32,19.25c0-0.41-0.34-0.75-0.75-0.75
			S30.5,18.84,30.5,19.25z"/>
		<path class="st16" d="M31.25,16.25c0-0.41-0.34-0.75-0.75-0.75s-0.75,0.34-0.75,0.75c0,0.41,0.34,0.75,0.75,0.75
			C30.92,17,31.25,16.67,31.25,16.25z"/>
		<path class="st16" d="M23,32.76c0.41,0,0.75-0.34,0.75-0.75c0-0.41-0.34-0.75-0.75-0.75s-0.75,0.34-0.75,0.75
			C22.25,32.42,22.59,32.76,23,32.76z"/>
		<path class="st16" d="M11.03,15.71c0.06,0.2,0.2,0.37,0.38,0.46l0.88,0.44c-0.67,1.66-1.28,3.57-1.28,5.64
			c-0.01,3.78,1.21,7.14,3.36,9.25c4.76,4.67,12.52,4.67,17.28,0c2.14-2.1,3.37-5.47,3.36-9.24c0-2.05-0.62-3.97-1.29-5.64
			l0.88-0.44c0.19-0.09,0.33-0.26,0.38-0.46c0.06-0.2,0.03-0.42-0.08-0.6l-2.25-3.75c-0.21-0.35-0.66-0.47-1.02-0.27l-2.5,1.43
			c-1.67,0.95-2.37,3.04-1.6,4.75c1.44,3.21,1.67,8.15-0.18,9.96c-2.39,2.35-6.29,2.35-8.69,0c-1.85-1.81-1.62-6.75-0.18-9.96
			c0.77-1.71,0.06-3.8-1.6-4.75l-2.5-1.43C14.25,11.03,14.12,11,14,11c-0.26,0-0.5,0.13-0.64,0.36l-2.25,3.75
			C11,15.29,10.97,15.51,11.03,15.71L11.03,15.71z M13.58,15.58l-0.78-0.39l1.46-2.43l1.87,1.07c1,0.57,1.43,1.82,0.98,2.83
			c-1.68,3.74-1.88,9.32,0.5,11.65c1.49,1.46,3.44,2.19,5.39,2.19c1.95,0,3.91-0.73,5.39-2.19c2.38-2.33,2.17-7.9,0.5-11.65
			c-0.45-1.02-0.02-2.26,0.98-2.83l1.87-1.07l1.46,2.43l-0.78,0.39c-0.35,0.18-0.51,0.6-0.35,0.96c0.71,1.67,1.44,3.66,1.44,5.71
			c0,3.37-1.06,6.35-2.91,8.17c-4.18,4.1-10.99,4.1-15.18,0c-1.86-1.82-2.91-4.8-2.91-8.17c0.01-2.08,0.73-4.05,1.43-5.71
			C14.09,16.18,13.94,15.76,13.58,15.58L13.58,15.58z"/>
		<path class="st16" d="M20.56,32.45c0.4,0.1,0.81-0.14,0.91-0.54S21.34,31.1,20.94,31c-0.99-0.25-1.91-0.69-2.75-1.29
			c-0.13-0.1-0.29-0.14-0.44-0.14c-0.23,0-0.46,0.11-0.61,0.31c-0.24,0.34-0.17,0.81,0.17,1.05C18.3,31.64,19.39,32.15,20.56,32.45
			L20.56,32.45z"/>
		<path class="st16" d="M25.44,32.45c1.17-0.3,2.26-0.81,3.25-1.52c0.34-0.24,0.41-0.71,0.17-1.05c-0.15-0.2-0.38-0.31-0.61-0.31
			c-0.15,0-0.3,0.05-0.44,0.14c-0.83,0.6-1.76,1.03-2.75,1.29c-0.4,0.1-0.64,0.51-0.54,0.91C24.63,32.31,25.04,32.55,25.44,32.45
			L25.44,32.45z"/>
	</g>
</g>
</svg>
