<svg id="Capa_1" data-name="Capa 1" xmlns="http://www.w3.org/2000/svg" viewBox="0 0 22.2 22.2"><defs><style>.cls-1,.cls-2{fill:#010002;}.cls-1{fill-opacity:0;}</style></defs><title>socials-03</title><rect class="cls-1" width="22.19" height="22.19"/><path class="cls-2" d="M14.74,2.1H7.46A5.36,5.36,0,0,0,2.1,7.46v7.27a5.36,5.36,0,0,0,5.36,5.36h7.27a5.36,5.36,0,0,0,5.36-5.36V7.45A5.36,5.36,0,0,0,14.74,2.1ZM18.3,14.75a3.55,3.55,0,0,1-3.55,3.55H7.48a3.55,3.55,0,0,1-3.55-3.55V7.48A3.55,3.55,0,0,1,7.48,3.93h7.27A3.55,3.55,0,0,1,18.3,7.48v7.27Z"/><path class="cls-2" d="M11.1,6.44a4.66,4.66,0,1,0,4.66,4.66A4.66,4.66,0,0,0,11.1,6.44Zm0,7.51a2.84,2.84,0,1,1,2.84-2.84A2.84,2.84,0,0,1,11.1,14Z"/><circle class="cls-2" cx="15.76" cy="6.48" r="1.12"/></svg>