<?xml version="1.0" encoding="utf-8"?>
<!-- Generator: Adobe Illustrator 23.0.3, SVG Export Plug-In . SVG Version: 6.00 Build 0)  -->
<svg version="1.1" id="Capa_1" xmlns="http://www.w3.org/2000/svg" xmlns:xlink="http://www.w3.org/1999/xlink" x="0px" y="0px"
	 viewBox="0 0 122 24" style="enable-background:new 0 0 122 24;" xml:space="preserve">
<style type="text/css">
	.st0{opacity:0.7;fill:#0A0201;}
	.st1{opacity:0.65;fill:#090507;}
	.st2{opacity:0.7;fill:#070013;}
	.st3{opacity:0.7;fill:#090403;}
	.st4{opacity:0.7;fill:#150023;}
	.st5{opacity:0.7;fill:#0A0200;}
	.st6{fill:#1F92D1;}
	.st7{fill:#FFFFFF;}
	.st8{opacity:0.3;fill:none;stroke:#000000;stroke-width:0.5;stroke-miterlimit:10;}
	.st9{opacity:0.7;}
	.st10{fill:#010002;}
	.st11{fill:none;stroke:#000000;stroke-width:2;stroke-miterlimit:10;}
	.st12{fill:none;stroke:#9F238A;stroke-width:3;stroke-miterlimit:10;}
	.st13{fill:none;stroke:#EB854B;stroke-width:3;stroke-miterlimit:10;}
	.st14{fill:none;stroke:#6CAA43;stroke-width:3;stroke-miterlimit:10;}
	.st15{opacity:0.5;}
	.st16{fill:#6CAA43;}
	.st17{fill:#EB854B;}
	.st18{fill:#9F238A;}
	.st19{fill:#D38450;}
	.st20{fill:#F0CA39;}
	.st21{fill:#80A74C;}
	.st22{fill:#5690CD;}
	.st23{fill:#872986;}
	.st24{fill:none;}
	.st25{opacity:0;fill:#FFFFFF;}
</style>
<g>
	<path d="M71.59,6.86l-2.55-5.28H50.22v21.37h13.7v-5.48h7.67v0V6.88L71.59,6.86z M64.47,13.09H54.06V4.32h10.41V13.09z"/>
	<polygon class="st19" points="56.6,9.8 53.86,4.32 64.82,4.32 67.56,9.8 	"/>
	<polygon points="31.04,11.99 31.04,22.95 42,22.95 42,11.99 46.94,11.99 46.94,1.03 25.56,1.03 25.56,11.99 	"/>
	<polygon class="st20" points="31.04,12.28 34.88,9.72 34.88,19.95 31.04,22.51 	"/>
	<polygon class="st20" points="38.17,19.95 42,22.51 42,12.28 38.17,9.72 	"/>
	<polygon points="89.68,1.58 89.68,6.51 80.36,6.51 80.36,1.58 74.34,1.58 74.34,22.95 80.36,22.95 80.36,18.02 89.68,18.02 
		89.68,22.95 95.71,22.95 95.71,1.58 	"/>
	<polygon class="st21" points="89.34,6.51 91.9,10.35 83.24,10.35 80.68,6.51 	"/>
	<polygon class="st21" points="83.24,13.64 80.68,17.47 89.34,17.47 91.9,13.64 	"/>
	<polygon points="99,22.95 104.34,22.95 109.68,20.28 115.03,22.95 120.37,22.95 120.37,17.61 117.7,12.27 120.37,6.92 120.37,1.58 
		115.03,1.58 109.68,4.25 104.34,1.58 99,1.58 99,6.92 101.67,12.27 99,17.61 	"/>
	<polygon class="st22" points="109.96,20.23 104.48,22.97 104.48,12.01 109.96,9.27 	"/>
	<path d="M23.37,6.93L20.7,1.58H2v21.37h18.64l2.73-5.34V6.93z M15.7,17.69L5.29,16.46V5.44L15.7,6.67V17.69z"/>
	<polygon class="st23" points="10.77,8.2 5.29,5.46 5.29,16.42 10.77,19.16 	"/>
</g>
</svg>
