<svg id="Capa_1" data-name="Capa 1" xmlns="http://www.w3.org/2000/svg" viewBox="0 0 22.2 22.2"><defs><style>.cls-1,.cls-2{fill:#010002;}.cls-1{fill-opacity:0;}</style></defs><title>socials-03</title><rect class="cls-1" width="22.19" height="22.19"/><path class="cls-2" d="M20.33,5.37a7.57,7.57,0,0,1-2.18.6,3.85,3.85,0,0,0,1.67-2.09,7.63,7.63,0,0,1-2.41.92,3.79,3.79,0,0,0-6.55,2.59,3.44,3.44,0,0,0,.1.86,10.77,10.77,0,0,1-7.81-4,3.73,3.73,0,0,0-.51,1.9A3.8,3.8,0,0,0,4.32,9.34,3.76,3.76,0,0,1,2.6,8.86v.05a3.79,3.79,0,0,0,3,3.71,3.66,3.66,0,0,1-1,.13,3.35,3.35,0,0,1-.71-.07,3.78,3.78,0,0,0,3.54,2.63,7.58,7.58,0,0,1-4.7,1.62,8.72,8.72,0,0,1-.9-.05,10.69,10.69,0,0,0,5.81,1.7A10.7,10.7,0,0,0,18.46,7.8V7.31A7.24,7.24,0,0,0,20.33,5.37Z"/></svg>